/* XPM */
static char *blackstone[]={
"28 28 88 2",
"Qt c #ffffff",
"#i c #181810",
"#a c #201818",
".8 c #201c18",
"#j c #202018",
"#. c #292020",
".2 c #292420",
"#n c #292820",
"#k c #292829",
"#e c #312429",
".T c #312829",
".1 c #312c29",
"#p c #313029",
"#c c #313031",
".W c #393031",
".L c #393431",
"#g c #393439",
".O c #393839",
"#l c #413c39",
".5 c #414039",
".C c #414041",
".F c #4a4041",
".B c #4a484a",
".P c #52484a",
".w c #524c4a",
".X c #525052",
"#t c #5a5052",
".4 c #5a5552",
".G c #5a555a",
"#m c #5a595a",
".q c #62595a",
".l c #625d5a",
".m c #625d62",
".i c #626162",
".k c #626562",
".Y c #6a6162",
".h c #6a6562",
".j c #6a656a",
"#r c #73696a",
".v c #736d6a",
".r c #736d73",
".s c #737173",
".u c #737573",
".y c #7b7573",
".t c #7b757b",
".p c #7b797b",
".z c #837d83",
".Z c #838183",
".A c #838583",
".n c #8b8583",
".H c #8b858b",
"#u c #8b898b",
".M c #948d8b",
".g c #948d94",
".I c #949194",
".K c #9c9594",
".E c #9c959c",
"#h c #9c9994",
".J c #9c999c",
"#o c #a4999c",
".Q c #a49da4",
".R c #a4a1a4",
".U c #aca5a4",
".S c #aca5ac",
".D c #acaaac",
".N c #b4aeac",
"#v c #b4b2ac",
".b c #b4b2b4",
"#f c #bdb2b4",
".c c #bdb6bd",
".0 c #bdbabd",
"#s c #bdbebd",
".9 c #c5bebd",
"#b c #c5bec5",
".d c #c5c6c5",
".a c #cdc6cd",
".f c #cdcacd",
".6 c #cdcecd",
"#q c #d5cecd",
".3 c #d5d2d5",
".x c #ded6d5",
".V c #ded6de",
".# c #dedade",
".o c #e6dade",
".7 c #e6e6e6",
"#d c #eee6e6",
"## c #eee6ee",
".e c #fffaff",
"QtQtQtQtQtQtQtQtQtQtQt.#.a.b.c.d.#.eQtQtQtQtQtQtQtQtQtQt",
"QtQtQtQtQtQtQtQt.f.g.h.i.h.j.k.i.l.m.n.fQtQtQtQtQtQtQtQt",
"QtQtQtQtQtQt.o.p.q.i.r.s.t.u.t.s.v.i.q.w.s.xQtQtQtQtQtQt",
"QtQtQtQtQt.b.w.q.k.r.y.z.A.n.A.z.y.r.h.q.B.C.DQtQtQtQtQt",
"QtQtQtQt.E.F.G.i.s.p.H.I.J.K.J.I.H.p.s.i.G.F.L.MQtQtQtQt",
"QtQtQt.N.O.P.l.v.y.H.I.Q.R.S.R.Q.I.H.y.v.l.P.O.T.UQtQtQt",
"QtQt.V.W.F.X.Y.s.Z.I.R.D.0.0.0.D.R.I.Z.s.Y.X.F.1.2.3QtQt",
"QtQt.4.W.5.4.h.y.A.E.R.0.6.7.6.0.R.E.A.y.k.4.C.W.8.4QtQt",
"Qt.9#..1.F.4.j.u.H.K.D.0##Qt##.0.D.K.H.u.j.4.F.1#.#a#bQt",
"Qt.j.8#c.C.4.k.y.A.E.R.0.6#d.6.0.R.E.A.y.h.4.5#c.8.8.hQt",
".e.2#..1.F.X.Y.s.Z.I.R.D.0.0.0.D.R.I.Z.s.Y.X.F.1#.#a#e.e",
".f.8#a.T.O.P.l.v.y.n.I.Q.R.S.R.Q.I.n.y.v.l.P.O.T#a.8#a.f",
"#f#a.8#.#g.F.G.i.s.p.H.I.J.K.J.I.H.p.s.i.G.F.L#..8#a.8.b",
"#h.8#i#j#k#l.B#m.h.r.y.z.A.H.A.z.y.r.k#m.B#l#n#j#a.8#i.J",
"#o#a.8#a.2.1.F.w.q.i.r.s.t.u.t.s.v.i.q.w.F.1.2#a.8#a.8.J",
".N.8#a.8#a.2#p.C.B.4.l.Y.k.h.h.Y.l.4.B.C#p.2#a.8#i.8#a.b",
"#q#a.8#a.8.8.2.1#l.F.w.X.G.4.G.X.w.F#l.1.2.8.8#a.8#a.8.f",
".e.2#i.8#a.8#a.2#k.L.O.C.C.F.5.C.O.L#n.2#a.8#i.8#a.8.2.e",
"Qt.h.8#a.8#a.8#a#.#..T.1.W.1.W.1.T#.#.#a.8#a.8#a.8#a#rQt",
"Qt.9#a.8#i.8#a.8#i.8#a#..8#..8#.#a.8#a.8#i.8#a.8#i.8#sQt",
"QtQt.4#a.8#a.8#a.8#a.8#a.8#a.8#a.8#a.8#a.8#a.8#a.8#tQtQt",
"QtQt.3#.#a.8#i.8#a.8#i.8#a.8#i.8#a.8#i.8#a.8#i.8.8.xQtQt",
"QtQtQt.S.8#a.8#a.8#a.8#a.8#a.8#a.8#a.8#a.8#a.8#a.DQtQtQt",
"QtQtQtQt.n.8#a.8#i.8#a.8#i.8#a.8#i.8#a.8#i.8#a#uQtQtQtQt",
"QtQtQtQtQt.U#.#a.8#a.8#a.8#a.8#a.8#a.8#a.8#j.SQtQtQtQtQt",
"QtQtQtQtQtQt.3.4#a.8#i.8#a.8#i.8#a.8#i.8.X.3QtQtQtQtQtQt",
"QtQtQtQtQtQtQtQt#b.h.T#a.8#a.8#a.8.2#r.9QtQtQtQtQtQtQtQt",
"QtQtQtQtQtQtQtQtQtQt.e#q#v.J.J.b.f.eQtQtQtQtQtQtQtQtQtQt"};
